<mxfile host="app.diagrams.net" modified="2024-03-02T23:46:24.208Z" agent="Mozilla/5.0 (Macintosh; Intel Mac OS X 10_15_7) AppleWebKit/537.36 (KHTML, like Gecko) Chrome/121.0.0.0 Safari/537.36" version="24.0.1" etag="luc9lMOp3y4bU-1UnDSd" type="github">
  <diagram name="Page-1" id="pCP8gP57gu--AseNP8Vg">
    <mxGraphModel>
      <root>
        <mxCell id="0" />
        <mxCell id="1" parent="0" />
      </root>
    </mxGraphModel>
  </diagram>
</mxfile>
